<svg width="60" height="60" viewBox="0 0 60 60" fill="none" xmlns="http://www.w3.org/2000/svg">
<g clip-path="url(#clip0_1_2)">
<mask id="path-1-outside-1_1_2" maskUnits="userSpaceOnUse" x="3" y="3" width="36" height="44" fill="black">
<rect fill="white" x="3" y="3" width="36" height="44"/>
<path d="M21.96 4C27.04 4 30.82 4.88 33.3 6.64C35.78 8.4 37.02 11.6 37.02 16.24C37.02 20.12 35.82 23.36 33.42 25.96C31.02 28.52 27.18 29.8 21.9 29.8C20.18 29.8 18.82 29.78 17.82 29.74L17.7 40.3L22.08 40.78C22.08 42.54 21.62 44.28 20.7 46H5.88L5.34 42.7C7.42 41.86 9.1 41.28 10.38 40.96C10.38 40.84 10.2 30.26 9.84 9.22C9.2 9.06 7.54 8.54 4.86 7.66L5.34 4H21.96ZM20.64 24.1C23.32 24.06 25.4 23.32 26.88 21.88C28.36 20.44 29.1 18.58 29.1 16.3C29.1 14.02 28.44 12.4 27.12 11.44C25.84 10.44 23.82 9.94 21.06 9.94C19.98 9.94 18.96 9.96 18 10C17.92 16.32 17.88 21.04 17.88 24.16L20.64 24.1Z"/>
</mask>
<path d="M21.96 4C27.04 4 30.82 4.88 33.3 6.64C35.78 8.4 37.02 11.6 37.02 16.24C37.02 20.12 35.82 23.36 33.42 25.96C31.02 28.52 27.18 29.8 21.9 29.8C20.18 29.8 18.82 29.78 17.82 29.74L17.7 40.3L22.08 40.78C22.08 42.54 21.62 44.28 20.7 46H5.88L5.34 42.7C7.42 41.86 9.1 41.28 10.38 40.96C10.38 40.84 10.2 30.26 9.84 9.22C9.2 9.06 7.54 8.54 4.86 7.66L5.34 4H21.96ZM20.64 24.1C23.32 24.06 25.4 23.32 26.88 21.88C28.36 20.44 29.1 18.58 29.1 16.3C29.1 14.02 28.44 12.4 27.12 11.44C25.84 10.44 23.82 9.94 21.06 9.94C19.98 9.94 18.96 9.96 18 10C17.92 16.32 17.88 21.04 17.88 24.16L20.64 24.1Z" fill="#2A9EF2"/>
<path d="M33.3 6.64L32.7213 7.45551L32.7213 7.45551L33.3 6.64ZM33.42 25.96L34.1496 26.644L34.1548 26.6383L33.42 25.96ZM17.82 29.74L17.86 28.7408L16.8318 28.6997L16.8201 29.7286L17.82 29.74ZM17.7 40.3L16.7001 40.2886L16.6898 41.1953L17.5911 41.294L17.7 40.3ZM22.08 40.78H23.08V39.8836L22.1889 39.786L22.08 40.78ZM20.7 46V47H21.2992L21.5818 46.4717L20.7 46ZM5.88 46L4.89313 46.1615L5.03034 47H5.88V46ZM5.34 42.7L4.96554 41.7728L4.22397 42.0722L4.35313 42.8615L5.34 42.7ZM10.38 40.96L10.6225 41.9301L11.38 41.7408V40.96H10.38ZM9.84 9.22L10.8399 9.20289L10.8267 8.4359L10.0825 8.24986L9.84 9.22ZM4.86 7.66L3.86849 7.52996L3.76074 8.35157L4.54803 8.61009L4.86 7.66ZM5.34 4V3H4.46258L4.34849 3.86996L5.34 4ZM20.64 24.1L20.6251 23.1001L20.6183 23.1002L20.64 24.1ZM26.88 21.88L27.5774 22.5967L27.5774 22.5967L26.88 21.88ZM27.12 11.44L26.5044 12.228L26.5179 12.2386L26.5318 12.2487L27.12 11.44ZM18 10L17.9584 9.00087L17.0121 9.04029L17.0001 9.98734L18 10ZM17.88 24.16H16.88V25.182L17.9017 25.1598L17.88 24.16ZM21.96 5C26.9583 5 30.49 5.87204 32.7213 7.45551L33.8787 5.82449C31.15 3.88795 27.1217 3 21.96 3V5ZM32.7213 7.45551C34.8197 8.94475 36.02 11.7469 36.02 16.24H38.02C38.02 11.4531 36.7403 7.85524 33.8787 5.82449L32.7213 7.45551ZM36.02 16.24C36.02 19.895 34.8976 22.8849 32.6852 25.2817L34.1548 26.6383C36.7424 23.8351 38.02 20.345 38.02 16.24H36.02ZM32.6905 25.2761C30.5572 27.5515 27.0427 28.8 21.9 28.8V30.8C27.3173 30.8 31.4828 29.4885 34.1495 26.6439L32.6905 25.2761ZM21.9 28.8C20.1853 28.8 18.8405 28.78 17.86 28.7408L17.78 30.7392C18.7995 30.78 20.1747 30.8 21.9 30.8V28.8ZM16.8201 29.7286L16.7001 40.2886L18.6999 40.3114L18.8199 29.7514L16.8201 29.7286ZM17.5911 41.294L21.9711 41.774L22.1889 39.786L17.8089 39.306L17.5911 41.294ZM21.08 40.78C21.08 42.3582 20.6692 43.9374 19.8182 45.5283L21.5818 46.4717C22.5708 44.6226 23.08 42.7218 23.08 40.78H21.08ZM20.7 45H5.88V47H20.7V45ZM6.86687 45.8385L6.32687 42.5385L4.35313 42.8615L4.89313 46.1615L6.86687 45.8385ZM5.71446 43.6272C7.77677 42.7944 9.4078 42.2338 10.6225 41.9301L10.1375 39.9899C8.7922 40.3262 7.06323 40.9256 4.96554 41.7728L5.71446 43.6272ZM11.38 40.96C11.38 40.8286 11.1997 30.2317 10.8399 9.20289L8.84015 9.23711C9.02015 19.7571 9.15515 27.6621 9.24514 32.952C9.29014 35.597 9.32389 37.5882 9.34639 38.9256C9.35764 39.5943 9.36608 40.0995 9.3717 40.4411C9.37451 40.612 9.37661 40.7418 9.37802 40.8307C9.37954 40.9273 9.38 40.9629 9.38 40.96H11.38ZM10.0825 8.24986C9.48595 8.10071 7.86636 7.59463 5.17197 6.7099L4.54803 8.61009C7.21364 9.48536 8.91405 10.0193 9.59746 10.1901L10.0825 8.24986ZM5.85151 7.79003L6.33151 4.13003L4.34849 3.86996L3.86849 7.52996L5.85151 7.79003ZM5.34 5H21.96V3H5.34V5ZM20.6549 25.0999C23.5116 25.0573 25.8649 24.2629 27.5774 22.5967L26.1826 21.1633C24.9352 22.3771 23.1284 23.0627 20.6251 23.1001L20.6549 25.0999ZM27.5774 22.5967C29.272 20.9479 30.1 18.819 30.1 16.3H28.1C28.1 18.341 27.448 19.9321 26.1826 21.1633L27.5774 22.5967ZM30.1 16.3C30.1 13.8362 29.3802 11.8473 27.7082 10.6313L26.5318 12.2487C27.4998 12.9527 28.1 14.2038 28.1 16.3H30.1ZM27.7356 10.652C26.1939 9.44746 23.9017 8.94 21.06 8.94V10.94C23.7384 10.94 25.4861 11.4325 26.5044 12.228L27.7356 10.652ZM21.06 8.94C19.9678 8.94 18.9338 8.96022 17.9584 9.00087L18.0416 10.9991C18.9862 10.9598 19.9922 10.94 21.06 10.94V8.94ZM17.0001 9.98734C16.9201 16.3082 16.88 21.0334 16.88 24.16H18.88C18.88 21.0466 18.9199 16.3318 18.9999 10.0127L17.0001 9.98734ZM17.9017 25.1598L20.6617 25.0998L20.6183 23.1002L17.8583 23.1602L17.9017 25.1598Z" fill="#0059E0" mask="url(#path-1-outside-1_1_2)"/>
<mask id="path-3-outside-2_1_2" maskUnits="userSpaceOnUse" x="21" y="15" width="36" height="44" fill="black">
<rect fill="white" x="21" y="15" width="36" height="44"/>
<path d="M39.96 16C45.04 16 48.82 16.88 51.3 18.64C53.78 20.4 55.02 23.6 55.02 28.24C55.02 32.12 53.82 35.36 51.42 37.96C49.02 40.52 45.18 41.8 39.9 41.8C38.18 41.8 36.82 41.78 35.82 41.74L35.7 52.3L40.08 52.78C40.08 54.54 39.62 56.28 38.7 58H23.88L23.34 54.7C25.42 53.86 27.1 53.28 28.38 52.96C28.38 52.84 28.2 42.26 27.84 21.22C27.2 21.06 25.54 20.54 22.86 19.66L23.34 16H39.96ZM38.64 36.1C41.32 36.06 43.4 35.32 44.88 33.88C46.36 32.44 47.1 30.58 47.1 28.3C47.1 26.02 46.44 24.4 45.12 23.44C43.84 22.44 41.82 21.94 39.06 21.94C37.98 21.94 36.96 21.96 36 22C35.92 28.32 35.88 33.04 35.88 36.16L38.64 36.1Z"/>
</mask>
<path d="M39.96 16C45.04 16 48.82 16.88 51.3 18.64C53.78 20.4 55.02 23.6 55.02 28.24C55.02 32.12 53.82 35.36 51.42 37.96C49.02 40.52 45.18 41.8 39.9 41.8C38.18 41.8 36.82 41.78 35.82 41.74L35.7 52.3L40.08 52.78C40.08 54.54 39.62 56.28 38.7 58H23.88L23.34 54.7C25.42 53.86 27.1 53.28 28.38 52.96C28.38 52.84 28.2 42.26 27.84 21.22C27.2 21.06 25.54 20.54 22.86 19.66L23.34 16H39.96ZM38.64 36.1C41.32 36.06 43.4 35.32 44.88 33.88C46.36 32.44 47.1 30.58 47.1 28.3C47.1 26.02 46.44 24.4 45.12 23.44C43.84 22.44 41.82 21.94 39.06 21.94C37.98 21.94 36.96 21.96 36 22C35.92 28.32 35.88 33.04 35.88 36.16L38.64 36.1Z" fill="#1B3EF3"/>
<path d="M51.3 18.64L50.7213 19.4555L50.7213 19.4555L51.3 18.64ZM51.42 37.96L52.1496 38.644L52.1548 38.6383L51.42 37.96ZM35.82 41.74L35.86 40.7408L34.8318 40.6997L34.8201 41.7286L35.82 41.74ZM35.7 52.3L34.7001 52.2886L34.6898 53.1953L35.5911 53.294L35.7 52.3ZM40.08 52.78H41.08V51.8836L40.1889 51.786L40.08 52.78ZM38.7 58V59H39.2992L39.5818 58.4717L38.7 58ZM23.88 58L22.8931 58.1615L23.0303 59H23.88V58ZM23.34 54.7L22.9655 53.7728L22.224 54.0722L22.3531 54.8615L23.34 54.7ZM28.38 52.96L28.6225 53.9301L29.38 53.7408V52.96H28.38ZM27.84 21.22L28.8399 21.2029L28.8267 20.4359L28.0825 20.2499L27.84 21.22ZM22.86 19.66L21.8685 19.53L21.7607 20.3516L22.548 20.6101L22.86 19.66ZM23.34 16V15H22.4626L22.3485 15.87L23.34 16ZM38.64 36.1L38.6251 35.1001L38.6183 35.1002L38.64 36.1ZM44.88 33.88L45.5774 34.5967L45.5774 34.5967L44.88 33.88ZM45.12 23.44L44.5044 24.228L44.5179 24.2386L44.5318 24.2487L45.12 23.44ZM36 22L35.9584 21.0009L35.0121 21.0403L35.0001 21.9873L36 22ZM35.88 36.16H34.88V37.182L35.9017 37.1598L35.88 36.16ZM39.96 17C44.9583 17 48.49 17.872 50.7213 19.4555L51.8787 17.8245C49.15 15.888 45.1217 15 39.96 15V17ZM50.7213 19.4555C52.8197 20.9448 54.02 23.7469 54.02 28.24H56.02C56.02 23.4531 54.7403 19.8552 51.8787 17.8245L50.7213 19.4555ZM54.02 28.24C54.02 31.895 52.8976 34.8849 50.6852 37.2817L52.1548 38.6383C54.7424 35.8351 56.02 32.345 56.02 28.24H54.02ZM50.6905 37.2761C48.5572 39.5515 45.0427 40.8 39.9 40.8V42.8C45.3173 42.8 49.4828 41.4885 52.1495 38.6439L50.6905 37.2761ZM39.9 40.8C38.1853 40.8 36.8405 40.78 35.86 40.7408L35.78 42.7392C36.7995 42.78 38.1747 42.8 39.9 42.8V40.8ZM34.8201 41.7286L34.7001 52.2886L36.6999 52.3114L36.8199 41.7514L34.8201 41.7286ZM35.5911 53.294L39.9711 53.774L40.1889 51.786L35.8089 51.306L35.5911 53.294ZM39.08 52.78C39.08 54.3582 38.6692 55.9374 37.8182 57.5283L39.5818 58.4717C40.5708 56.6226 41.08 54.7218 41.08 52.78H39.08ZM38.7 57H23.88V59H38.7V57ZM24.8669 57.8385L24.3269 54.5385L22.3531 54.8615L22.8931 58.1615L24.8669 57.8385ZM23.7145 55.6272C25.7768 54.7944 27.4078 54.2338 28.6225 53.9301L28.1375 51.9899C26.7922 52.3262 25.0632 52.9256 22.9655 53.7728L23.7145 55.6272ZM29.38 52.96C29.38 52.8286 29.1997 42.2317 28.8399 21.2029L26.8401 21.2371C27.0201 31.7571 27.1551 39.6621 27.2451 44.952C27.2901 47.597 27.3239 49.5882 27.3464 50.9256C27.3576 51.5943 27.3661 52.0995 27.3717 52.4411C27.3745 52.612 27.3766 52.7418 27.378 52.8307C27.3795 52.9273 27.38 52.9629 27.38 52.96H29.38ZM28.0825 20.2499C27.486 20.1007 25.8664 19.5946 23.172 18.7099L22.548 20.6101C25.2136 21.4854 26.9141 22.0193 27.5975 22.1901L28.0825 20.2499ZM23.8515 19.79L24.3315 16.13L22.3485 15.87L21.8685 19.53L23.8515 19.79ZM23.34 17H39.96V15H23.34V17ZM38.6549 37.0999C41.5116 37.0573 43.8649 36.2629 45.5774 34.5967L44.1826 33.1633C42.9352 34.3771 41.1284 35.0627 38.6251 35.1001L38.6549 37.0999ZM45.5774 34.5967C47.272 32.9479 48.1 30.819 48.1 28.3H46.1C46.1 30.341 45.448 31.9321 44.1826 33.1633L45.5774 34.5967ZM48.1 28.3C48.1 25.8362 47.3802 23.8473 45.7082 22.6313L44.5318 24.2487C45.4998 24.9527 46.1 26.2038 46.1 28.3H48.1ZM45.7356 22.652C44.1939 21.4475 41.9017 20.94 39.06 20.94V22.94C41.7384 22.94 43.4861 23.4325 44.5044 24.228L45.7356 22.652ZM39.06 20.94C37.9678 20.94 36.9338 20.9602 35.9584 21.0009L36.0416 22.9991C36.9862 22.9598 37.9922 22.94 39.06 22.94V20.94ZM35.0001 21.9873C34.9201 28.3082 34.88 33.0334 34.88 36.16H36.88C36.88 33.0466 36.9199 28.3318 36.9999 22.0127L35.0001 21.9873ZM35.9017 37.1598L38.6617 37.0998L38.6183 35.1002L35.8583 35.1602L35.9017 37.1598Z" fill="#2046A7" mask="url(#path-3-outside-2_1_2)"/>
</g>
<defs>
<clipPath id="clip0_1_2">
<rect width="60" height="60" fill="white"/>
</clipPath>
</defs>
</svg>
